<?xml version="1.0" encoding="utf-8"?>
<!-- Generator: Adobe Illustrator 24.3.0, SVG Export Plug-In . SVG Version: 6.00 Build 0)  -->
<svg version="1.1" id="Capa_1" xmlns="http://www.w3.org/2000/svg" xmlns:xlink="http://www.w3.org/1999/xlink" x="0px" y="0px"
	 width="3200px" height="2400px" viewBox="0 0 3200 2400" style="enable-background:new 0 0 3200 2400;" xml:space="preserve">
<style type="text/css">
	.st0{fill:#FFFFFF;}
</style>
<path id="Shape_1_" class="st0" d="M1633.1,1040.6c14.1,1.8,27.6,4.3,42.8,6.1c1,0,1-1.2,0-1.8c-17.7-9.2-24-19-24-31.9
	c0-9.2,3.7-20.2,8.3-33.1c0,0,6.3-17.8,7.3-18.4c18.3,2.5,32.8,4.6,49.5,8c3.6,1.2,6.7,2.7,8.9,4.9c3.1,3.1,4.7,6.1,6.3,9.8l0.1,0.1
	c5.1,16.3,11.9,37,15.6,49c2.6,8.6,1.6,17.2-10.4,19.6c-2.6,0.6-6.3,1.2-9.4,1.2c-1.6,0-1.6,1.2,0,1.8c16.7,3.7,32.9,9.2,49,14.7
	c0.5,0,1-0.6,0.5-1.8c-8.8-30.9-18.3-61.5-27.9-92c16.5,4.3,37.2,10.7,57.2,18c0.2,20,0.4,40.1,0.4,60.5c0,9.2-6.3,14.7-13,14.7
	h-10.4c-1,0-1.6,1.2-0.5,1.8c22.9,9.2,40.7,16.8,63.2,28.5c1,0.6,2.6-0.4,0.8-2c-5.3-4.6-10.4-9.6-14.4-13.5
	c-4.5-4.5-5.7-12.9-5.7-18.4c0-24.9,0.5-38.4,0.5-63.7c4.5,1.8,8.8,3.7,13,5.5c3.9,2,7.8,4.2,13.1,7.2
	c28.7,17.2,49.2,57.5,51.1,89.4c0.9,14.5-10,13.1-19.3,11.2c-2.3-0.5-2.9,1.1-1.3,2.1c15.2,9.7,27.7,20,40.5,33
	c3.4,4.2,4.5-1.2,4.6-3.1c1-38.8-15.1-94.2-46.9-117.8c-1.4-1-8.9-3.7-9.9-4.3c3.7,0.6,7.8,0.6,12,0.6c18.3,0,33.4-9.8,33.4-33.7
	c0-37.4-27.6-68.1-58.4-84c-25-14.1-43.3-22.7-70.4-33.1c-2.1-0.6-2.1,1.2-0.5,1.8c9.9,4.9,17.7,14.1,17.7,26.4
	c0,28.9,0.3,56.7,0.6,84.5c-1.4-0.5-2.8-1.1-4.3-1.6c-12.1-4.1-31.9-11.1-54.9-16.3c-9.6-30.4-19.2-60.9-28.5-91.6
	c-5.7-19,8.9-18.4,16.2-17.8c1,0,1.6-1.2,0-1.8c-5.2-2.5-19.8-6.1-24-7.4c-12-3.1-15.1,8.6-17.7,14.7
	c-21.9,58.3-41.2,111.6-63.1,169.9C1629.4,1038.8,1630.5,1040,1633.1,1040.6z M1854.8,911.2c27.6,15.9,42.2,39.9,42.2,71.8
	c0,20.9-6.8,29.4-18.3,33.1c-5.7,1.8-15.6-0.6-22.4-4.9c-11.5-6.1-17.2-9.2-28.7-14.7c0-30.7-1-57-1.6-87.1
	C1825.5,895.2,1843.3,905.7,1854.8,911.2z M1696.7,876.8h1.6l25.2,78.7l0.4,1.7c1.6,6.1-1,8-4.7,7.4l-1.9-0.2
	c-17.1-3.5-29.7-5.2-48.7-7.8L1696.7,876.8z M1520.5,908.7c1,1.2,2.1,0,1.6-1.2c-13-48.5-4.8-63.2,25.5-63.2h7.8
	c6.8,0,12,4.9,12,11.7v153.3c0,10.4-5.2,22.1-16.7,25.1l-8.9,2.5c-1,0.6-0.5,1.8,0.5,1.8h20.9c4.7,0,9.4,0,14.1,0h14.1
	c7.3,0,14.1,0,20.9,0c1,0,1.6-1.2,0.5-1.8l-8.9-2.5c-11.5-3.1-16.7-14.7-16.7-25.1V856c0-6.7,5.2-11.7,12-11.7h7.8
	c30.2,0,38.5,14.7,25.5,63.2c-0.5,1.2,0.5,2.5,1.6,1.2c6.8-11.7,18.8-46,21.4-61.9c0.5-3.1-1-6.7-6.3-7.4
	c-14.6-1.8-52.6-1.2-72.9-1.2h-0.5c-19.8,0-55.7-0.6-70.3,1.2c-5.2,0.6-6.8,4.3-6.3,7.4C1502.3,862.7,1513.7,897.1,1520.5,908.7z
	 M1210.1,1143.8c-16.7-14.7-26.1-23.3-39.6-37.4c-1-1.2-2.6-0.6-1.6,1.2c8.3,12.9,15.1,22.7,15.1,33.1c0,50.3-0.5,100.6-0.5,150.9
	c0,4.3-3.1,9.2-8.3,9.2c-4.2,0-6.8-2.5-13-7.4c-1-0.6-1.6,0.6-1,1.2c14.6,17.8,32.9,35.6,50.1,50.9c13,11.7,27.1,20.2,43.8,20.2
	c7.8,0,16.2-2.5,25.6-7.4c19.3-9.8,22.9-36.2,22.9-56.4C1303.5,1229.1,1257.1,1184.9,1210.1,1143.8z M1283.1,1295.9
	c-0.5,17.8-0.5,47.8-19.8,55.8c-5.7,2.5-11.5,3.7-16.7,3.7c-16.7,0-33.4-14.1-42.2-22.7c-3.7-4.3-3.1-6.7-3.1-9.2
	c0-59.5,1-110.4,1-169.9c0-1.2-0.5-9.8,5.7-4.3C1252.4,1190.4,1285.2,1231.5,1283.1,1295.9z M1614.8,1471.4
	c-7.8-2.5-9.9-3.1-14.6-4.9c-6.3-2.5-10.4-8-10.4-15.3c-0.5-50.9-2.1-106.1-2.6-157c0-5.5,3.1-11,8.9-13.5c4.7-1.8,7.8-3.1,15.1-6.1
	c1.6-0.6,2.6-2.5,0.5-2.5c-11.5,0.6-23.5,0.6-35.5,0.6c-11.5,0-22.9,0-34.9-0.6c-1.6,0-1,1.2,0,1.8c6.8,3.1,10.4,4.3,15.6,6.7
	c5.2,2.5,9.4,8,9.4,13.5c0.5,50.9,0.5,106.7,1,157c0,8-5.2,12.9-11.5,15.9c-4.2,1.8-7.8,3.1-13.6,4.3c-1,0-1.6,1.8,0,1.8
	c9.4,0.6,18.8,1.2,28.7,1.2c14.6,0,29.7-0.6,44.3-1.2C1616.4,1473.2,1616.9,1472,1614.8,1471.4z M1761.4,1313.1c0,2.5,1,1.8,1.6,1.2
	c6.8-23.9,11.5-41.7,13.6-61.3c0.5-4.3-0.5-9.2-8.9-6.7c-50.1,12.9-93.3,18.4-140.7,25.1c-4.2,0.6-5.2,5.5-4.2,9.2
	c4.7,20.2,16.2,40.5,25.6,55.2c0.5,0.6,1,1.2,1.6,0.6c0.5-0.6,0-1.8,0-1.8c-14.1-36.2-15.6-60.7,18.3-63.2
	c9.6-0.7,22.9-1.5,23.4,8.9c2.4,52.4,3.9,106.6,5,159.1c0.1,6.1-3.1,12.3-7.8,16.6c-4.7,4.3-11.5,7.4-17.2,8.6
	c-1.6,0.6-1.6,1.8,0,1.8c24-3.1,48-9.2,71.5-15.3c1,0,1.6-1.8,0-1.8c-6.3,1.2-11.5,0.6-15.6-0.6c-6.3-1.8-9.8-8-9.9-14.1
	c-1.5-57.1-3.3-108.5-5-158.3c-0.4-13.5,21.4-17.1,33.4-17.7C1770.8,1256.7,1764,1288.6,1761.4,1313.1z M1374.4,1240.1
	c-23.5-9.8-46.9-19.6-69.4-32.5c-1.6-0.6-2.1,1.2-1,2.5c14.6,9.8,24.5,18.4,24.5,28.2c0,51.5-0.5,107.9-0.5,160.1
	c0,5.5-5.2,10.4-11,9.2l-13.6-2.5c-0.5,0-2.1,0.6-0.5,1.8c22.9,11.7,43.3,22.1,68.8,31.3c1.6,0.6,2.1-1.2,0.5-1.8
	c-7.8-5.5-11.5-8-17.2-12.9s-6.3-12.3-6.3-17.8v-157c0-3.7,3.1-6.7,7.3-7.4c5.7-0.6,12,1.2,18.3,1.8
	C1375.4,1243.2,1376.5,1241.4,1374.4,1240.1z M1989.8,1218c-2.1-1.8-2.1,0-1.6,0.6c7.8,14.7,14.1,30.7,14.1,46
	c0,11.7-4.2,22.1-14.1,33.1c-9.9,11-19.8,22.1-31.3,31.3c-6.3,4.9-12,0-12-9.8c0-15.5-0.1-30.3-0.2-44.8c4.3-4,10-9.6,11.7-11.6
	c2.1-2.5,2.1-4.9,0-4.3c-3.9,3.2-7.8,6.4-11.7,9.5c-0.3-34.6-0.9-67.8-1.3-105.2c0-3.1,0.5-6.1,2.6-8.6c7.8-9.2,13-15.9,19.8-25.1
	c1-1.2,0-2.5-1-1.2c-20.3,18.4-40.7,33.7-63.1,49.7c-0.5,0.6,0,1.2,0.5,1.2c8.9-3.1,22.9-9.2,22.9,6.7c0,32.5,0.9,64.3,1.5,96.3
	c-8,5.8-16.4,11.6-25.5,17.2c-9,5.5-19,11.4-29.2,17.1c-11.2-24.6-22.5-49.4-32.3-77.8c-1.4-4.2-2.1-6.7-2.1-11
	c0-8.6,4.2-9.8,9.4-12.9c1.6-1.2,0.5-2.5-1-1.8c-2.6,1.2-10.4,4.9-15.1,8c-6.8,4.3-11.5,8-14.1,17.2
	c-18.8,65.6-39.8,140.4-61.7,207.2c-1.4,4.2,1.5,2.9,2,2.9c15.6-4.9,29-10.8,44.6-16.9c1.6-0.6,1.6-2.5-1-2.5
	c-18.3-0.6-23.5-9.2-23.5-21.5c0-12.9,9.9-44.8,10.4-45.4c18.8-6.7,34.8-14.2,51.6-22.8c3.8-1.4,10.4-2.1,13.6-0.5
	c3.7,1.8,5.7,5.5,7.3,9.2l2.1,4.3l0,0c7.2,16.7,10.4,25.1,10.4,28.3c0,4.3-1.6,8.6-4.7,11.7c-5.2,5.5-9.9,9.2-16.7,15.3
	c-1,1.2-0.5,2.5,1,1.8c15.6-8.6,30.2-17.2,45.4-27c2.1-1.2,1.4-4.1,0.3-5.9c-7.4-19-15.4-36.8-23.5-54.5c17.5-9.4,34.4-19.7,43.5-26
	c3-2,6-4.2,8.9-6.5c0.3,14.5,0.5,29.1,0.5,43.9c0,9.2-3.1,17.8-8.3,25.1c-4.2,5.5-8.9,10.4-14.1,15.9c-1,1.2,0,2.5,1,1.8
	c42.8-30.7,78.2-61.9,111.6-108.6c1.6-1.8,1.6-3.7,1.6-5.5C2017.5,1246.9,2002.3,1233.4,1989.8,1218z M1817.7,1252.4
	c0.5,0,0.5,0,1.6,0l25.6,59.2l1.5,3.9c2.6,6.7,1,12.3-2.1,14.7c-1,0.9-2,1.6-3,2.3c-17.4,8.9-33,15.6-52.2,22.8
	C1798.9,1319.2,1807.3,1288.6,1817.7,1252.4z M1495.9,1335.2c-2.1,1.2-1,3.1,0,2.5c4.7-3.1,11.5-8.6,15.6-12.3
	c11.5-10.4,15.6-19.6,13.6-25.1c-15.1-30.7-52.2-37.4-72-37.4c-39.6,0-75.6,42.9-76.1,85.9c-0.5,51.5,32.3,112.2,85,114.1
	c15.6,0.6,36-9.8,50.6-17.8h0.5c5.7,0.6,9.4,16.6,9.9,27.6c0,0.6,0,1.8,1,1.8c1,0,1-1.2,1-1.8c0-11,0-23.9,0-35
	c0-21.5,0-36.2,0-57.7c0-4.3-1-8.6-4.7-11c-11.5-6.7-19.8-8-30.2-8c-16.7,0-31.3,6.1-41.2,12.9c-1,0.6-1,2.5,0.5,1.8
	c6.8-3.7,14.6-6.1,23.5-6.1c9.4,0,31.3,4.9,31.3,14.7c0.5,22.1,1,38.6,1,59.5c-6.8,3.7-12.5,4.9-20.3,4.9
	c-55.8,0-87.1-68.1-87.1-117.8c0-33.1,15.1-53.4,44.9-55.8c21.4-1.8,69.9,13.5,64.2,45.4C1505.3,1329.1,1497.5,1334,1495.9,1335.2z
	 M1505.8,976.8c0,0-0.5-1.2-1.6-1.2s-0.5,1.2-0.5,1.2c0.5,1.2,6.8,23.3,6.8,34.3c0,13.5-3.8,23.8-21.4,27c-22.8,4.1-36,8-44.9,8
	c-8.3,0-15.1-8-15.1-22.7l0.5-47.6c0.5-0.1,1.1-0.2,1.6-0.2c10.4-2.5,13-4.3,7.3-4.3c-2.8,0-5.8,0.2-8.8,0.5l1-92.5
	c0-14.1,9.9-22.7,25-27.6c0.5-0.6,0.5-1.2,0.5-1.2c0-0.6-1-0.6-1-0.6c-5.7,0-45.9,11-68.3,19c-1,0.6-0.5,1.8,0.5,1.8
	c1.6,0,3.1,0,4.7,0c10.4,0,18.8,9.2,18.8,19.6l-1,85c-19.8,4.9-39.4,12.9-50.2,17.4c-2,0.8-4.1,1.7-6.1,2.6
	c-9.3-27.1-19.3-56-26.2-75.6c-3.1-10.4-1.6-17.2,1.6-22.1c2.6-3.7,5.2-6.1,9.4-9.2c1-0.6,0.5-1.8-1-1.2c0,0-14.1,6.7-21.4,10.4
	c-8.9,6.1-11.2,15.8-13.6,23.9c-46.2,158.8-57.5,198.1-62.1,222.9c-0.7,7.7,1.5,9.3,5.2,5.4c12.8-13.2,27-26.7,38.6-35.1
	c1-0.7,0.5-2.1-0.5-1.8c-19.9,4.7-23.5-1.9-22-18.8c1.4-15.9,5.9-33.3,12.1-51.1l1.6-1.8c17.2-9.4,30.8-17.2,46.8-25.3
	c2.5-1.2,5.5-2.2,9.5-1.7c3.7,0.6,5.7,5.5,7.3,9.2l1,2.3l10,27.7c1,3.1,1.6,5.5,1.6,8.6c0,6.1-2.6,12.9-7.8,17.2
	c-3.7,3.1-6.8,5.5-11.5,9.2c-1,1.2-0.5,2.5,1,1.8c14.1-7.4,44.9-19,44.9-19c1-0.6,1-1.8,0.5-3.7c0.3,1-10.6-30.7-23.1-67.2
	c18.9-8,38.5-15.2,54.4-19.9l-0.6,49c0,12.3-5.7,23.3-14.6,30.7l-9.4,7.4c-0.5,0.6-0.5,1.8,0.5,1.8c43.8-15.9,91.6-26.8,141.3-30.1
	c2.6-0.2,2.1-2.5,2.1-4.3C1527.2,1015.5,1515.2,995.2,1505.8,976.8z M1305.6,930.2c0.5,0,0.5-0.6,1-0.6
	c8.4,23.4,14.5,41.5,21.9,63.2l0,0l1,3.1c1,3.7,1,9.8-2.1,11.7l-2.2,1.3c-17.2,8.8-31.1,16.6-49.4,26.3
	C1285.8,996.6,1294.6,968.2,1305.6,930.2z"/>
</svg>
